<svg xmlns="http://www.w3.org/2000/svg" viewBox="0 0 24 24" fill="currentColor"><path d="M12 2C6.477 2 2 6.477 2 12s4.477 10 10 10 10-4.477 10-10S17.523 2 12 2zm4.586 14.424a.623.623 0 01-.857.208c-2.348-1.435-5.304-1.76-8.785-.964a.623.623 0 11-.277-1.215c3.809-.87 7.076-.496 9.712 1.115a.623.623 0 01.207.856zm1.223-2.723a.78.78 0 01-1.072.257c-2.687-1.652-6.785-2.131-9.965-1.166a.78.78 0 01-.973-.519.781.781 0 01.52-.972c3.632-1.102 8.147-.568 11.234 1.328a.78.78 0 01.256 1.072zm.105-2.835C14.692 8.95 9.375 8.775 6.297 9.71a.937.937 0 11-.543-1.794c3.532-1.072 9.404-.865 13.115 1.338a.937.937 0 01-1.055 1.612z"/></svg>